{"title":"Source.Code.2011.PROPER.720p.BRRip.XviD.AC3-PsychoLogic","uid":6593228,"size":2789024709,"categoryP":"video","categoryS":"hd___movies","magnet":"?xt=urn:btih:090f1c40304c85ff2ae834a8c8d99a36c5de5028&amp;dn=Source.Code.2011.PROPER.720p.BRRip.XviD.AC3-PsychoLogic&amp;tr=udp%3A%2F%2Ftracker.openbittorrent.com%3A80&amp;tr=udp%3A%2F%2Fopen.demonii.com%3A1337&amp;tr=udp%3A%2F%2Ftracker.coppersurfer.tk%3A6969&amp;tr=udp%3A%2F%2Fexodus.desync.com%3A6969","seeders":0,"leechers":1,"uploader":"PsychoLogic","files":16,"time":1312912643,"description":"Release Information:\n\nSource.Code.2011.PROPER.720p.BRRip.XviD.AC3-PsychoLogic\n\nSource                           : Source.Code.PROPER.1080p.BluRay.x264-TWiZTED\nSubtitles                        : Arabic, English, Farsi, Greek, Indonesian, Polish, Portuguese-BR, Serbian, Slovenian, Spanish, Swedish, Vietnamese\nLanguage                         : English\nEncoded By                       : PsychoLogic\nSample Included                  : Yes\n\nMovie Information                : http://www.imdb.com/title/tt0945513/\nGenre                            : Mystery | Sci-Fi | Thriller \nDirector                         : Duncan Jones\nCast                             : Jake Gyllenhaal, Michelle Monaghan and Vera Farmiga\nPlot                             : An action thriller centered on a soldier who wakes up in the body of an unknown man and discovers he's part of a mission to find the bomber of a Chicago commuter train. \n\nGeneral\nFormat                           : AVI\nFormat/Info                      : Audio Video Interleave\nFormat profile                   : OpenDML\nFile size                        : 2.58 GiB\nDuration                         : 1h 33mn\nOverall bit rate                 : 3 959 Kbps\nWriting application              : VirtualDubMod 1.5.10.2 (build 2542/release)\nWriting library                  : VirtualDubMod build 2542/release\n\nVideo\nID                               : 0\nFormat                           : MPEG-4 Visual\nFormat profile                   : Advanced Simple@L5\nFormat settings, BVOP            : 2\nFormat settings, QPel            : No\nFormat settings, GMC             : No warppoints\nFormat settings, Matrix          : Default (H.263)\nCodec ID                         : XVID\nCodec ID/Hint                    : XviD\nDuration                         : 1h 33mn\nBit rate                         : 3 499 Kbps\nWidth                            : 1 280 pixels\nHeight                           : 720 pixels\nDisplay aspect ratio             : 16:9\nFrame rate                       : 23.976 fps\nColor space                      : YUV\nChroma subsampling               : 4:2:0\nBit depth                        : 8 bits\nScan type                        : Progressive\nCompression mode                 : Lossy\nBits/(Pixel*Frame)               : 0.158\nStream size                      : 2.28 GiB (88%)\nWriting library                  : XviD 1.2.1 (UTC 2008-12-04)\n\nAudio\nID                               : 1\nFormat                           : AC-3\nFormat/Info                      : Audio Coding 3\nMode extension                   : CM (complete main)\nCodec ID                         : 2000\nDuration                         : 1h 33mn\nBit rate mode                    : Constant\nBit rate                         : 448 Kbps\nChannel(s)                       : 6 channels\nChannel positions                : Front: L C R, Side: L R, LFE\nSampling rate                    : 48.0 KHz\nBit depth                        : 16 bits\nCompression mode                 : Lossy\nStream size                      : 299 MiB (11%)\nAlignment                        : Split accross interleaves\nInterleave, duration             : 42 ms (1.00 video frame)\nInterleave, preload duration     : 500 ms\n","torrent":{"xt":"urn:btih:090f1c40304c85ff2ae834a8c8d99a36c5de5028","amp;dn":"Source.Code.2011.PROPER.720p.BRRip.XviD.AC3-PsychoLogic","amp;tr":["udp%3A%2F%2Ftracker.openbittorrent.com%3A80","udp%3A%2F%2Fopen.demonii.com%3A1337","udp%3A%2F%2Ftracker.coppersurfer.tk%3A6969","udp%3A%2F%2Fexodus.desync.com%3A6969"],"infoHash":"090f1c40304c85ff2ae834a8c8d99a36c5de5028","infoHashBuffer":{"type":"Buffer","data":[9,15,28,64,48,76,133,255,42,232,52,168,200,217,154,54,197,222,80,40]},"announce":[],"urlList":[]}}